Coordinates
version=1
nRows=4
nColumns=63
inDegrees=yes

Units are S.I. units (second, meters, Newtons, ...)
If the header above contains a line with 'inDegrees', this indicates whether rotational values are in degrees (yes) or radians (no).

endheader
time	pelvis_tilt	pelvis_list	pelvis_rotation	pelvis_tx	pelvis_ty	pelvis_tz	hip_flexion_r	hip_adduction_r	hip_rotation_r	knee_angle_r	knee_angle_r_beta	ankle_angle_r	subtalar_angle_r	mtp_angle_r	hip_flexion_l	hip_adduction_l	hip_rotation_l	knee_angle_l	knee_angle_l_beta	ankle_angle_l	subtalar_angle_l	mtp_angle_l	L5_S1_Flex_Ext	L5_S1_Lat_Bending	L5_S1_axial_rotation	L4_L5_Flex_Ext	L4_L5_Lat_Bending	L4_L5_axial_rotation	L3_L4_Flex_Ext	L3_L4_Lat_Bending	L3_L4_axial_rotation	L2_L3_Flex_Ext	L2_L3_Lat_Bending	L2_L3_axial_rotation	L1_L2_Flex_Ext	L1_L2_Lat_Bending	L1_L2_axial_rotation	L1_T12_Flex_Ext	L1_T12_Lat_Bending	L1_T12_axial_rotation	Abs_r3	Abs_r2	Abs_r1	Abs_t1	Abs_t2	neck_flexion	neck_bending	neck_rotation	arm_flex_r	arm_add_r	arm_rot_r	elbow_flex_r	pro_sup_r	wrist_flex_r	wrist_dev_r	arm_flex_l	arm_add_l	arm_rot_l	elbow_flex_l	pro_sup_l	wrist_flex_l	wrist_dev_l
      0.00000000	      2.64434438	     -1.67030470	    121.55490891	      0.29093828	      0.57995305	      0.92965079	      1.40160879	     -2.93371759	    -31.06413414	     12.35071976	      0.21556072	     30.56696552	     17.24041063	      0.00000000	      0.00619374	      1.92630821	      7.99414805	      3.23383038	      0.05644099	     24.18241195	      6.82746992	      0.00000000	     -0.07545556	      0.17616489	     -1.46675988	     -0.14012852	      0.23429931	     -1.55843237	     -0.12396594	      0.42832732	     -1.55843237	     -0.08623816	      0.42832732	     -1.28341489	     -0.07006803	      0.35923545	     -1.19174240	     -0.04311531	      0.27287942	     -1.10006991	     -0.53897152	      1.99281251	     -8.15767841	      0.00000000	      0.00000000	     27.13661050	      2.30265039	     -1.46567657	      5.48240647	    -16.13266122	     40.28945413	     28.61491676	     69.63437207	    -15.67393749	     -3.51012765	     10.25419554	     -5.99057420	    169.79588114	      1.19775651	      4.22258359	     -9.69206148	     -2.61471610
      0.02439024	      2.86009253	     -2.07725420	    121.26027235	      0.29287470	      0.58016683	      0.92811461	      2.20618368	     -2.92882472	    -30.21005623	     12.93463560	      0.22575198	     30.57673397	     16.30745637	      0.00000000	      0.52757830	      1.85904183	      8.31397807	      3.59616366	      0.06276490	     23.35654947	      5.07678609	      0.00000000	     -0.00606849	      0.15262630	     -1.43003787	     -0.01126979	      0.20299298	     -1.51941524	     -0.00996992	      0.37109559	     -1.51941524	     -0.00693567	      0.37109559	     -1.25128314	     -0.00563520	      0.31123555	     -1.16190577	     -0.00346753	      0.23641814	     -1.07252841	     -0.04334660	      1.72653924	     -7.95344164	      0.00000000	      0.00000000	     27.18135776	      2.65590525	     -1.29525904	      6.89778262	    -15.10462259	     39.13509104	     31.92502838	     59.28978457	     -7.68088116	     -5.78017075	     13.73006350	     -4.28623786	    159.84239331	      3.74404587	      3.87429200	     -9.71558568	     -8.63263367
      0.04878049	      3.29596776	     -2.23317521	    120.91862407	      0.29418261	      0.58067258	      0.92749355	      2.90678066	     -2.57432214	    -29.12850791	     13.33283511	      0.23270187	     30.50953264	     15.34825016	      0.00000000	      0.97575263	      1.52563637	      8.52222020	      3.93721760	      0.06871741	     23.06200264	      3.67053276	      0.00000000	      0.04428422	      0.19052768	     -1.37003974	      0.08224023	      0.25340182	     -1.45566723	      0.07275455	      0.46324901	     -1.45566723	      0.05061244	      0.46324901	     -1.19878477	      0.04112233	      0.38852405	     -1.11315729	      0.02530401	      0.29512738	     -1.02752981	      0.31631779	      2.15528725	     -7.61975003	      0.00000000	      0.00000000	     27.14791944	      2.55184468	     -0.81397673	      8.34137461	    -14.49742761	     40.48684372	     34.52803278	     56.33885242	     -3.45615514	     -4.95278886	     17.00482291	     -2.37247999	    149.71944405	      6.94040334	      4.26037611	     -7.65100610	    -12.49526670
      0.07317073	      3.76781162	     -2.28193527	    120.62100561	      0.29503523	      0.58143264	      0.92746652	      3.49753065	     -2.13197616	    -28.10742391	     13.59227341	      0.23722992	     30.50469741	     14.61874567	      0.00000000	      1.35776014	      1.14830729	      8.85169614	      4.23276567	      0.07387570	     23.08054983	      2.35063615	      0.00000000	      0.07880508	      0.25025690	     -1.31586865	      0.14634891	      0.33284168	     -1.39811044	      0.12946886	      0.60847463	     -1.39811044	      0.09006632	      0.60847463	     -1.15138507	      0.07317839	      0.51032387	     -1.06914328	      0.04502922	      0.38764794	     -0.98690149	      0.56289678	      2.83095612	     -7.31846667	      0.00000000	      0.00000000	     27.08870835	      2.37016334	     -0.17138998	      9.44032511	    -14.03346243	     42.87012293	     36.68256702	     54.33529972	     -0.98552795	     -3.38786242	     19.74423563	     -0.54979971	    140.19329757	     10.01552407	      5.84391617	     -4.01779970	    -14.13736754
